<svg width="48" height="48" viewBox="0 0 48 48" fill="none" xmlns="http://www.w3.org/2000/svg">
<g id="Trade" clip-path="url(#clip0_1_883)">
<g id="Group">
<path id="Vector" d="M36.6562 31.0312H45.0938V46.5938H36.6562V31.0312Z" fill="#FD697F"/>
<path id="Vector_2" d="M40.875 31.0312H45.0938V46.5938H40.875V31.0312Z" fill="#E6455D"/>
<path id="Vector_3" d="M29.625 31.0312H25.4062V46.5938H29.625H33.8438V31.0312H29.625Z" fill="#8ADB53"/>
<path id="Vector_4" d="M29.625 31.0312H33.8438V46.5938H29.625V31.0312Z" fill="#4FC16E"/>
<path id="Vector_5" d="M18.375 35.0839L14.1562 37.1932V46.5937H18.375H22.5938V32.9745L18.375 35.0839Z" fill="#FD697F"/>
<path id="Vector_6" d="M22.5938 32.9745L18.375 35.0839V46.5937H22.5938V32.9745Z" fill="#E6455D"/>
<g id="Group_2">
<path id="Vector_7" d="M5.71875 11.3438H8.53125V15.5625H5.71875V11.3438Z" fill="#60474F"/>
</g>
<g id="Group_3">
<path id="Vector_8" d="M5.71875 24H8.53125V28.2188H5.71875V24Z" fill="#60474F"/>
</g>
<path id="Vector_9" d="M7.125 11.3438H8.53125V15.5625H7.125V11.3438Z" fill="#3F303A"/>
<path id="Vector_10" d="M7.125 24H8.53125V28.2188H7.125V24Z" fill="#3F303A"/>
<path id="Vector_11" d="M2.90625 36.6562H11.3438V46.5938H2.90625V36.6562Z" fill="#8ADB53"/>
<path id="Vector_12" d="M7.125 36.6562H11.3438V46.5938H7.125V36.6562Z" fill="#4FC16E"/>
<g id="Group_4">
<path id="Vector_13" d="M40.8256 18.3036L39.6939 20.8771L41.9733 21.8789L34.9177 25.4063H24H23.3353L12.4177 31.0313H1.5V33.8438H13.0823L24 28.2188H35.5823L43.2304 24.3954L42.6644 26.8181L45.4027 27.458L46.9175 20.9802L40.8256 18.3036Z" fill="#FD697F"/>
<path id="Vector_14" d="M43.2304 24.3954L42.6644 26.8181L45.4027 27.458L46.9175 20.9802L40.8256 18.3036L39.6939 20.8771L41.9733 21.8789L34.9177 25.4063H24V28.2188H35.5823L43.2304 24.3954Z" fill="#E6455D"/>
<path id="Vector_15" d="M24 45.1875H0V48H24H48V45.1875H24Z" fill="#60474F"/>
<path id="Vector_16" d="M24 45.1875H48V48H24V45.1875Z" fill="#3F303A"/>
</g>
<g id="Group_5">
<path id="Vector_17" d="M2.90625 14.1562V25.4062H11.3438V14.1562H2.90625Z" fill="#8ADB53"/>
</g>
<path id="Vector_18" d="M7.125 14.1562H11.3438V25.4062H7.125V14.1562Z" fill="#4FC16E"/>
<g id="Group_6">
<path id="Vector_19" d="M16.9688 5.71875H19.7812V9.9375H16.9688V5.71875Z" fill="#60474F"/>
</g>
<g id="Group_7">
<path id="Vector_20" d="M16.9688 18.375H19.7812V22.5938H16.9688V18.375Z" fill="#60474F"/>
</g>
<path id="Vector_21" d="M18.375 5.71875H19.7812V9.9375H18.375V5.71875Z" fill="#3F303A"/>
<path id="Vector_22" d="M18.375 18.375H19.7812V22.5938H18.375V18.375Z" fill="#3F303A"/>
<g id="Group_8">
<path id="Vector_23" d="M14.1562 8.53125V19.7812H22.5938V8.53125H14.1562Z" fill="#FD697F"/>
</g>
<path id="Vector_24" d="M18.375 8.53125H22.5938V19.7812H18.375V8.53125Z" fill="#E6455D"/>
<g id="Group_9">
<path id="Vector_25" d="M39.4688 0H42.2812V4.21875H39.4688V0Z" fill="#60474F"/>
</g>
<g id="Group_10">
<path id="Vector_26" d="M39.4688 12.75H42.2812V16.9688H39.4688V12.75Z" fill="#60474F"/>
</g>
<path id="Vector_27" d="M40.875 0H42.2812V4.21875H40.875V0Z" fill="#3F303A"/>
<path id="Vector_28" d="M40.875 12.75H42.2812V16.9688H40.875V12.75Z" fill="#3F303A"/>
<g id="Group_11">
<path id="Vector_29" d="M36.6562 2.8125V14.1562H45.0938V2.8125H36.6562Z" fill="#FD697F"/>
</g>
<path id="Vector_30" d="M40.875 2.8125H45.0938V14.1562H40.875V2.8125Z" fill="#E6455D"/>
<g id="Group_12">
<path id="Vector_31" d="M28.2188 2.90625H31.0312V7.125H28.2188V2.90625Z" fill="#60474F"/>
</g>
<g id="Group_13">
<path id="Vector_32" d="M28.2188 15.5625H31.0312V19.7812H28.2188V15.5625Z" fill="#60474F"/>
</g>
<path id="Vector_33" d="M29.625 2.90625H31.0312V7.125H29.625V2.90625Z" fill="#3F303A"/>
<path id="Vector_34" d="M29.625 15.5625H31.0312V19.7812H29.625V15.5625Z" fill="#3F303A"/>
<g id="Group_14">
<path id="Vector_35" d="M25.4062 5.71875V16.9688H33.8438V5.71875H25.4062Z" fill="#8ADB53"/>
</g>
<path id="Vector_36" d="M29.625 5.71875H33.8438V16.9688H29.625V5.71875Z" fill="#4FC16E"/>
</g>
</g>
<defs>
<clipPath id="clip0_1_883">
<rect width="48" height="48" fill="white"/>
</clipPath>
</defs>
</svg>
