<svg width="48" height="48" viewBox="0 0 48 48" fill="none" xmlns="http://www.w3.org/2000/svg">
<g id="Create account" clip-path="url(#clip0_1_806)">
<g id="Group">
<path id="Vector" d="M32.4423 14.8893L26.2126 14.9221L8.15822 15.0187C7.63791 12.4753 7.51697 8.42995 8.31385 5.95963C9.28416 2.80963 12.5738 1.31901 15.4567 0.615884C19.9501 -0.483804 26.6626 -0.430366 28.4907 3.47057C28.6079 3.75745 28.8723 3.95713 29.1798 3.99088C32.9485 4.35642 33.2017 10.9237 32.4423 14.8893Z" fill="#56788B"/>
<path id="Vector_2" d="M32.4423 14.8893L26.2126 14.9221V9.79678C24.3638 4.25241 29.1798 3.99084 29.1798 3.99084C32.9485 4.35638 33.2016 10.9237 32.4423 14.8893Z" fill="#415E6F"/>
<path id="Vector_3" d="M26.9354 31.9077C26.5885 31.8693 26.2313 31.8365 25.8638 31.8083H15.0113C0.887884 32.8743 1.82163 42.133 1.89476 47.489C1.89851 47.7721 2.13007 47.9999 2.41413 47.9999H38.461C38.7451 47.9999 38.9766 47.7721 38.9804 47.489C39.0516 42.2727 39.9394 33.3533 26.9354 31.9077Z" fill="#FF6B81"/>
<path id="Vector_4" d="M25.8638 31.8084C25.7166 34.6772 23.3438 36.9572 20.4375 36.9572C17.5313 36.9572 15.1575 34.6762 15.0113 31.8084C15.8897 31.7418 16.8263 31.7072 17.8257 31.7072H23.0494C24.0488 31.7072 24.9854 31.7418 25.8638 31.8084Z" fill="#D9F0F4"/>
<path id="Vector_5" d="M38.9804 47.489C38.9766 47.7721 38.7451 47.9999 38.461 47.9999H36.586C36.8701 47.9999 37.1016 47.7721 37.1054 47.489C37.1729 42.5371 37.9763 34.0087 26.9354 31.9077C39.9394 33.3533 39.0516 42.2727 38.9804 47.489Z" fill="#ED2061"/>
<g id="Group_2">
<path id="Vector_6" d="M28.0735 17.8758H30.6363C31.8191 17.8758 32.778 16.9169 32.778 15.734C32.778 14.5511 31.8191 13.5922 30.6363 13.5922H28.8131L28.0735 17.8758Z" fill="#FAB684"/>
<path id="Vector_7" d="M12.6881 17.8758H10.1253C8.94252 17.8758 7.98364 16.9169 7.98364 15.734C7.98364 14.5511 8.94252 13.5922 10.1253 13.5922H11.9485L12.6881 17.8758Z" fill="#FAB684"/>
</g>
<path id="Vector_8" d="M23.0494 28.7343C22.8309 29.3267 22.7181 30.8463 23.0494 31.7069C23.0494 33.1497 21.8801 34.3193 20.4376 34.3193C18.9952 34.3193 17.8259 33.1497 17.8259 31.7069C18.1572 30.8462 18.0444 29.3266 17.8259 28.7343H23.0494Z" fill="#FAB684"/>
<path id="Vector_9" d="M29.1526 20.8284C29.1526 22.9021 27.3891 25.379 23.9091 28.1924C23.7141 28.3509 23.5069 28.4952 23.2913 28.6246C22.4307 29.1402 21.4248 29.4159 20.4188 29.414C19.1607 29.4168 17.941 28.9846 16.966 28.1924C13.4869 25.379 11.7235 22.9021 11.7235 20.8284C11.7235 20.608 11.7319 20.3877 11.7498 20.1712C11.8398 19.2665 11.8135 15.1359 11.8116 12.4687V12.4659C11.7882 11.5621 12.2944 10.7268 13.1073 10.3284C14.8829 9.53898 17.6588 9.14523 20.4376 9.1471C22.4316 9.14616 24.4238 9.34773 26.0466 9.7546C26.6851 9.91398 27.2673 10.1052 27.7688 10.3284C28.5807 10.7268 29.0869 11.5621 29.0635 12.4659V12.4687C29.0616 15.1359 29.0363 19.2665 29.1254 20.1712C29.1432 20.3877 29.1526 20.608 29.1526 20.8284Z" fill="#FDD9B4"/>
<path id="Vector_10" d="M29.1526 20.8284C29.1526 22.9021 27.3891 25.379 23.9091 28.1925C23.7141 28.3509 23.5069 28.4953 23.2913 28.6246C25.9388 26.2481 27.2776 24.135 27.2776 22.3284C27.2776 22.1081 27.2682 21.8878 27.2504 21.6712C27.1613 20.7665 27.1866 15.1359 27.1885 12.4687V11.8096C27.2101 10.964 26.7685 10.1784 26.0466 9.75464C26.6851 9.91401 27.2673 10.1053 27.7688 10.3284C28.5807 10.7268 29.0869 11.5621 29.0635 12.4659V12.4687C29.0616 15.1359 29.0363 19.2665 29.1254 20.1712C29.1432 20.3878 29.1526 20.6081 29.1526 20.8284Z" fill="#F9C19B"/>
<g id="Group_3">
<path id="Vector_11" d="M22.7416 22.1427C22.4152 21.932 21.9801 22.0258 21.7695 22.352C21.4717 22.8135 20.9668 23.089 20.419 23.089C19.8712 23.089 19.3663 22.8135 19.0683 22.352C18.8577 22.0258 18.4224 21.9321 18.0962 22.1427C17.77 22.3534 17.6763 22.7885 17.8869 23.1148C18.445 23.9793 19.3915 24.4954 20.4189 24.4954C21.4463 24.4954 22.3929 23.9793 22.951 23.1148C23.1616 22.7885 23.0679 22.3534 22.7416 22.1427Z" fill="#FAB684"/>
<path id="Vector_12" d="M19.1551 19.8601C19.4813 20.0706 19.9166 19.977 20.1272 19.6507C20.1958 19.5444 20.3119 19.481 20.4377 19.481C20.5635 19.481 20.6797 19.5444 20.7482 19.6507C20.8828 19.8591 21.1088 19.9726 21.3396 19.9726C21.4703 19.9726 21.6024 19.9362 21.7203 19.8601C22.0466 19.6494 22.1403 19.2142 21.9297 18.888C21.6009 18.3787 21.0432 18.0747 20.4376 18.0747C19.8322 18.0747 19.2745 18.3787 18.9457 18.888C18.7351 19.2142 18.8289 19.6494 19.1551 19.8601Z" fill="#FAB684"/>
</g>
<path id="Vector_13" d="M46.1429 33.8315C46.1429 38.7571 42.1332 42.7649 37.2047 42.7649C36.8879 42.7649 36.5747 42.7481 36.2672 42.7162C31.7775 42.2456 28.2666 38.4403 28.2666 33.8315C28.2666 29.2228 31.7775 25.4174 36.2672 24.9468C36.5747 24.9149 36.8879 24.8981 37.2047 24.8981C42.1332 24.8981 46.1429 28.9059 46.1429 33.8315Z" fill="#09EAA3"/>
<path id="Vector_14" d="M46.1429 33.8315C46.1429 38.7571 42.1332 42.7649 37.2048 42.7649C36.8879 42.7649 36.5748 42.7481 36.2673 42.7162C40.757 42.2456 44.2679 38.4403 44.2679 33.8315C44.2679 29.2228 40.757 25.4174 36.2673 24.9468C36.5748 24.9149 36.8879 24.8981 37.2048 24.8981C42.1332 24.8981 46.1429 28.9059 46.1429 33.8315Z" fill="#14BB87"/>
<path id="Vector_15" d="M34.1066 34.5346H36.5016V36.9296C36.5016 37.3179 36.8164 37.6327 37.2047 37.6327C37.593 37.6327 37.9078 37.3179 37.9078 36.9296V34.5346H40.3028C40.6911 34.5346 41.0059 34.2198 41.0059 33.8315C41.0059 33.4431 40.6911 33.1283 40.3028 33.1283H37.9078V30.7334C37.9078 30.3451 37.593 30.0303 37.2047 30.0303C36.8164 30.0303 36.5016 30.3451 36.5016 30.7334V33.1283H34.1066C33.7183 33.1283 33.4035 33.4431 33.4035 33.8315C33.4035 34.2198 33.7183 34.5346 34.1066 34.5346Z" fill="white"/>
<g id="Group_4">
<path id="Vector_16" d="M9.95976 44.1532C9.82823 44.1494 9.57098 44.1835 9.32057 44.4294C9.04467 44.7004 8.67792 45.2924 8.67792 47.2969C8.67792 47.6853 8.99273 48 9.38104 48C9.76935 48 10.0842 47.6853 10.0842 47.2969C10.0842 46.0728 10.2313 45.6102 10.2949 45.4673C10.5032 45.3484 10.6454 45.1261 10.65 44.8689C10.6571 44.4806 10.348 44.1602 9.95976 44.1532Z" fill="#ED2061"/>
<path id="Vector_17" d="M31.5555 44.4294C31.3051 44.1834 31.0474 44.1504 30.9163 44.1532C30.528 44.1603 30.219 44.4807 30.226 44.8689C30.2306 45.1262 30.3728 45.3485 30.5811 45.4673C30.6449 45.6102 30.7919 46.0728 30.7919 47.2969C30.7919 47.6853 31.1067 48 31.495 48C31.8833 48 32.1981 47.6853 32.1981 47.2969C32.1981 45.2924 31.8314 44.7004 31.5555 44.4294Z" fill="#ED2061"/>
</g>
</g>
</g>
<defs>
<clipPath id="clip0_1_806">
<rect width="48" height="48" fill="white"/>
</clipPath>
</defs>
</svg>
