<svg width="48" height="48" viewBox="0 0 48 48" fill="none" xmlns="http://www.w3.org/2000/svg">
<g id="Fund">
<g id="25-Wallet">
<path id="Vector" d="M48 24V30.9678C47.9988 31.3781 47.8352 31.7712 47.5451 32.0613C47.255 32.3514 46.8619 32.515 46.4516 32.5162H35.6129C35.2026 32.515 34.8095 32.3514 34.5194 32.0613C34.2293 31.7712 34.0657 31.3781 34.0645 30.9678V26.3226C34.0657 25.9123 34.2293 25.5192 34.5194 25.2291C34.8095 24.939 35.2026 24.7755 35.6129 24.7742H44.9032V22.4517H46.4516C46.8619 22.4529 47.255 22.6164 47.5451 22.9065C47.8352 23.1966 47.9988 23.5898 48 24ZM39.4839 28.6452C39.4839 28.339 39.3931 28.0396 39.2229 27.785C39.0528 27.5303 38.811 27.3319 38.528 27.2147C38.2451 27.0975 37.9338 27.0668 37.6334 27.1266C37.333 27.1863 37.0572 27.3338 36.8406 27.5503C36.6241 27.7669 36.4766 28.0428 36.4168 28.3431C36.3571 28.6435 36.3878 28.9548 36.505 29.2377C36.6222 29.5207 36.8206 29.7625 37.0752 29.9326C37.3299 30.1028 37.6292 30.1936 37.9355 30.1936C38.3458 30.1924 38.7389 30.0288 39.029 29.7387C39.3191 29.4486 39.4826 29.0555 39.4839 28.6452Z" fill="#E03E3E"/>
<path id="Vector_2" d="M41.5277 0L48 18.4103L44.9032 19.5174V14.7097C44.902 14.2994 44.7385 13.9063 44.4484 13.6162C44.1582 13.326 43.7651 13.1625 43.3548 13.1613H42.0774L39.8942 6.95226C39.5237 7.08427 39.1307 7.14168 38.738 7.12121C38.3452 7.10073 37.9604 7.00276 37.6056 6.83293C37.2508 6.66311 36.9332 6.42479 36.6709 6.1317C36.4086 5.83861 36.2069 5.49653 36.0774 5.12516L13.5329 13.1303V13.1613H6.96774C6.77582 13.1615 6.58421 13.146 6.39483 13.1148L6.19354 12.5574L32.5471 3.18968L41.5277 0Z" fill="#36CE94"/>
<path id="Vector_3" d="M3.17419 10.0413C3.32808 10.8234 3.72027 11.5387 4.29692 12.089C4.87356 12.6393 5.6064 12.9976 6.39484 13.1148C6.58421 13.146 6.77582 13.1615 6.96774 13.1613H43.3548C43.7651 13.1625 44.1582 13.326 44.4484 13.6161C44.7385 13.9062 44.902 14.2994 44.9032 14.7097V24.7742H35.6129C35.2026 24.7754 34.8095 24.9389 34.5194 25.229C34.2293 25.5192 34.0657 25.9123 34.0645 26.3226V30.9677C34.0657 31.378 34.2293 31.7711 34.5194 32.0612C34.8095 32.3514 35.2026 32.5149 35.6129 32.5161H44.9032V41.0322C44.9032 41.969 43.5174 43.3548 41.8064 43.3548H30.9677V30.9677C30.9665 30.5574 30.803 30.1643 30.5129 29.8742C30.2228 29.5841 29.8296 29.4206 29.4194 29.4193H4.64516C4.23488 29.4206 3.84175 29.5841 3.55164 29.8742C3.26153 30.1643 3.098 30.5574 3.09677 30.9677V43.3548C2.27546 43.3548 1.48778 43.0285 0.907024 42.4478C0.326266 41.867 0 41.0794 0 40.258V10.0645C0 8.83252 0.489399 7.65101 1.36054 6.77987C2.23167 5.90874 3.41319 5.41934 4.64516 5.41934H7.13032C6.14794 5.40359 5.19437 5.75134 4.45274 6.39579C3.71112 7.04025 3.23373 7.93597 3.11226 8.91095C3.07403 9.28865 3.09492 9.67001 3.17419 10.0413Z" fill="#FEBD55"/>
<path id="Vector_4" d="M39.8942 6.95222L42.0774 13.1613H13.5329V13.1303L36.0774 5.12512C36.2069 5.49649 36.4086 5.83857 36.6709 6.13166C36.9332 6.42475 37.2509 6.66307 37.6056 6.8329C37.9604 7.00272 38.3452 7.10069 38.738 7.12117C39.1308 7.14165 39.5237 7.08423 39.8942 6.95222Z" fill="#2FB380"/>
<path id="Vector_5" d="M37.9355 30.1936C38.7906 30.1936 39.4839 29.5003 39.4839 28.6452C39.4839 27.79 38.7906 27.0968 37.9355 27.0968C37.0803 27.0968 36.3871 27.79 36.3871 28.6452C36.3871 29.5003 37.0803 30.1936 37.9355 30.1936Z" fill="#2B2B37"/>
<path id="Vector_6" d="M15.9639 5.41935L30.9677 0L32.5161 3.09677L32.5471 3.18968L6.19355 12.5574L6.39484 13.1148C5.60641 12.9977 4.87357 12.6393 4.29692 12.089C3.72027 11.5387 3.32809 10.8234 3.17419 10.0413L15.9639 5.41935Z" fill="#2FB380"/>
<path id="Vector_7" d="M15.9639 5.41934L3.17419 10.0413C3.09492 9.67001 3.07402 9.28865 3.11226 8.91095C3.23373 7.93597 3.71111 7.04025 4.45274 6.39579C5.19436 5.75134 6.14793 5.40359 7.13032 5.41934H15.9639Z" fill="#BD6F08"/>
<path id="Vector_8" d="M30.9678 43.3548V46.4516C30.9665 46.8619 30.803 47.255 30.5129 47.5451C30.2228 47.8352 29.8297 47.9988 29.4194 48H4.64519C4.23491 47.9988 3.84178 47.8352 3.55167 47.5451C3.26155 47.255 3.09803 46.8619 3.0968 46.4516V36.3871H30.9678V43.3548Z" fill="#FF6161"/>
<path id="Vector_9" d="M30.9678 34.0646V36.3872H30.1936H3.871H3.0968V34.0646H3.871H30.1936H30.9678Z" fill="#EDF4FA"/>
<path id="Vector_10" d="M30.9678 30.9677V34.0645H3.0968V30.9677C3.09803 30.5574 3.26155 30.1643 3.55167 29.8742C3.84178 29.5841 4.23491 29.4205 4.64519 29.4193H29.4194C29.8297 29.4205 30.2228 29.5841 30.5129 29.8742C30.803 30.1643 30.9665 30.5574 30.9678 30.9677Z" fill="#CB3541"/>
<path id="Vector_11" d="M29.4194 45.6774H20.9033C18.0234 45.6757 15.215 44.7814 12.8644 43.1176C10.5138 41.4539 8.73666 39.1025 7.77758 36.3871H3.0968V46.4516C3.09803 46.8619 3.26155 47.255 3.55167 47.5451C3.84178 47.8352 4.23491 47.9988 4.64519 48H29.4194C29.8297 47.9988 30.2228 47.8352 30.5129 47.5451C30.803 47.255 30.9665 46.8619 30.9678 46.4516V44.129C30.9678 44.5397 30.8046 44.9335 30.5143 45.2239C30.2239 45.5143 29.83 45.6774 29.4194 45.6774Z" fill="#E03E3E"/>
<path id="Vector_12" d="M7.77758 36.3872C7.51045 35.6318 7.30944 34.8547 7.1768 34.0646H3.0968V36.3872H7.77758Z" fill="#C1CFE8"/>
<path id="Vector_13" d="M7.1768 34.0645C7.04268 33.2974 6.97276 32.5206 6.96777 31.7419V29.4193H4.64519C4.23491 29.4205 3.84178 29.5841 3.55167 29.8742C3.26155 30.1643 3.09803 30.5574 3.0968 30.9677V34.0645H7.1768Z" fill="#A81E29"/>
<path id="Vector_14" d="M32.5161 3.09677L31.8875 1.83948L8.37523 10.3301C7.9976 10.4664 7.58178 10.4507 7.21548 10.2864C6.84918 10.122 6.56105 9.82177 6.41187 9.44903L6.20981 8.94425L3.17419 10.0413C3.32809 10.8234 3.72027 11.5387 4.29692 12.089C4.87357 12.6393 5.60641 12.9976 6.39484 13.1148L6.19355 12.5574L32.5471 3.18967L32.5161 3.09677Z" fill="#2AA173"/>
<path id="Vector_15" d="M19.9866 10.8387H11.0284L6.19354 12.5575L6.39483 13.1149C6.58421 13.146 6.77582 13.1616 6.96774 13.1613H13.5329V13.1304L19.9866 10.8387Z" fill="#2FB380"/>
<path id="Vector_16" d="M48 18.4104L45.3383 10.8387H41.2645L42.0813 13.1613H43.3548C43.7651 13.1626 44.1583 13.3261 44.4484 13.6162C44.7385 13.9063 44.902 14.2994 44.9032 14.7097V19.5175L48 18.4104Z" fill="#2FB380"/>
<path id="Vector_17" d="M19.9866 10.8387L13.5329 13.1304V13.1613H42.0774L41.2606 10.8387H19.9866Z" fill="#2AA173"/>
<path id="Vector_18" d="M47.2258 30.9678H39.4839C39.1547 30.967 38.8295 30.8958 38.5301 30.7589C38.2307 30.622 37.9641 30.4227 37.7481 30.1742C37.3728 30.1311 37.0265 29.9515 36.7751 29.6695C36.5237 29.3875 36.3848 29.023 36.3848 28.6452C36.3848 28.2674 36.5237 27.9029 36.7751 27.6209C37.0265 27.339 37.3728 27.1593 37.7481 27.1162C37.9641 26.8677 38.2307 26.6684 38.5301 26.5315C38.8295 26.3946 39.1547 26.3234 39.4839 26.3226H44.9032C45.3139 26.3226 45.7077 26.1595 45.9981 25.8691C46.2885 25.5787 46.4516 25.1849 46.4516 24.7742V22.4517H44.9032V24.7742H35.6129C35.2026 24.7755 34.8095 24.939 34.5194 25.2291C34.2293 25.5192 34.0657 25.9123 34.0645 26.3226V30.9678C34.0657 31.3781 34.2293 31.7712 34.5194 32.0613C34.8095 32.3514 35.2026 32.515 35.6129 32.5162H46.4516C46.8619 32.515 47.255 32.3514 47.5451 32.0613C47.8352 31.7712 47.9988 31.3781 48 30.9678V30.1936C48 30.3989 47.9184 30.5958 47.7732 30.741C47.6281 30.8862 47.4311 30.9678 47.2258 30.9678Z" fill="#CB3541"/>
<g id="Group">
<path id="Vector_19" d="M36.3871 34.8388H44.9032V32.5162H35.6129C35.3402 32.5145 35.0729 32.4399 34.8387 32.3002V33.2904C34.8387 33.701 35.0018 34.0949 35.2922 34.3852C35.5826 34.6756 35.9764 34.8388 36.3871 34.8388Z" fill="#FC9E20"/>
<path id="Vector_20" d="M3.09677 34.0645V30.9677C3.098 30.5574 3.26153 30.1643 3.55164 29.8742C3.84175 29.5841 4.23488 29.4206 4.64516 29.4193H6.19355V13.0684C5.44758 12.9184 4.76274 12.5508 4.22539 12.0121C3.68805 11.4734 3.32227 10.7876 3.17419 10.0413C3.09492 9.67001 3.07403 9.28865 3.11226 8.91095C3.23373 7.93597 3.71112 7.04025 4.45274 6.39579C5.19437 5.75134 6.14794 5.40359 7.13032 5.41934H4.64516C3.41319 5.41934 2.23167 5.90874 1.36054 6.77987C0.489399 7.65101 0 8.83252 0 10.0645V40.258C0 41.0794 0.326266 41.867 0.907024 42.4478C1.48778 43.0285 2.27546 43.3548 3.09677 43.3548V34.0645Z" fill="#FC9E20"/>
<path id="Vector_21" d="M42.5806 40.2581H36.3871C35.5658 40.2581 34.7781 39.9318 34.1973 39.351C33.6166 38.7703 33.2903 37.9826 33.2903 37.1613V33.2903C33.2903 32.8797 33.1272 32.4858 32.8368 32.1955C32.5464 31.9051 32.1526 31.7419 31.7419 31.7419H30.9677V43.3548H41.8064C43.5174 43.3548 44.9032 41.969 44.9032 41.0323V37.9355C44.9032 38.5515 44.6585 39.1422 44.2229 39.5778C43.7874 40.0134 43.1966 40.2581 42.5806 40.2581Z" fill="#FC9E20"/>
</g>
</g>
</g>
</svg>
