<svg width="48" height="48" viewBox="0 0 48 48" fill="none" xmlns="http://www.w3.org/2000/svg">
<g id="Verify" clip-path="url(#clip0_1_833)">
<g id="Group">
<path id="Vector" fill-rule="evenodd" clip-rule="evenodd" d="M0.0483816 17.7508L13.3649 2.35166C13.3986 2.31362 13.4459 2.29035 13.4965 2.28684C13.5472 2.28333 13.5973 2.29988 13.6359 2.33291L33.3617 19.39C33.3997 19.4243 33.4229 19.472 33.4264 19.5231C33.4299 19.5741 33.4134 19.6246 33.3804 19.6637L20.0643 35.0625C20.0301 35.1007 19.9824 35.1241 19.9313 35.1277C19.8802 35.1313 19.8297 35.1148 19.7905 35.0818L0.0675066 18.0244C0.04808 18.0078 0.0321589 17.9875 0.0206757 17.9647C0.0091926 17.9419 0.00237838 17.917 0.000632212 17.8915C-0.00111395 17.866 0.00224305 17.8405 0.0105066 17.8163C0.0187701 17.7921 0.031774 17.7698 0.0487566 17.7508H0.0483816Z" fill="#006694"/>
<path id="Vector_2" fill-rule="evenodd" clip-rule="evenodd" d="M8.88495 10.5014L18.1814 6.26257L33.3617 19.39C33.3997 19.4243 33.4229 19.472 33.4264 19.5231C33.4299 19.5742 33.4134 19.6246 33.3804 19.6638L20.0643 35.0626C20.0301 35.1008 19.9824 35.1241 19.9313 35.1277C19.8802 35.1313 19.8297 35.1148 19.7905 35.0818L18.8465 34.2635L8.49092 11.555C8.40382 11.363 8.39636 11.1444 8.47016 10.9469C8.54396 10.7494 8.69301 10.5892 8.88467 10.5014H8.88495Z" fill="#005C85"/>
<path id="Vector_3" fill-rule="evenodd" clip-rule="evenodd" d="M9.13408 11.0486L27.6584 2.60334C27.7049 2.58259 27.7577 2.58101 27.8054 2.59895C27.853 2.61688 27.8917 2.65289 27.913 2.69915L38.731 26.426C38.7419 26.4489 38.7482 26.4738 38.7494 26.4993C38.7507 26.5247 38.7469 26.5501 38.7382 26.574C38.7296 26.598 38.7162 26.6199 38.699 26.6387C38.6818 26.6574 38.6611 26.6726 38.638 26.6832L20.1135 35.1281C20.0666 35.1486 20.0135 35.1501 19.9655 35.1322C19.9175 35.1144 19.8783 35.0785 19.8563 35.0323L9.03826 11.3062C9.01727 11.2594 9.01556 11.2061 9.03348 11.158C9.05141 11.1099 9.08754 11.0707 9.13408 11.049V11.0486Z" fill="#60B7FF"/>
<path id="Vector_4" fill-rule="evenodd" clip-rule="evenodd" d="M20.1299 8.14246H30.3955L38.7309 26.4261C38.7419 26.449 38.7482 26.4739 38.7494 26.4994C38.7507 26.5248 38.7468 26.5502 38.7382 26.5741C38.7295 26.598 38.7162 26.62 38.699 26.6388C38.6818 26.6575 38.661 26.6726 38.6379 26.6833L20.1135 35.1282C20.0666 35.1487 20.0135 35.1502 19.9655 35.1323C19.9175 35.1144 19.8783 35.0786 19.8562 35.0324L19.3363 33.8886V8.93877C19.3361 8.83436 19.3564 8.73093 19.3962 8.6344C19.436 8.53786 19.4944 8.45011 19.5681 8.37616C19.6418 8.3022 19.7293 8.2435 19.8257 8.2034C19.9221 8.1633 20.0255 8.14259 20.1299 8.14246Z" fill="#56A5E6"/>
<path id="Vector_5" fill-rule="evenodd" clip-rule="evenodd" d="M20.1299 8.74451H35.291L40.6821 14.1357V35.0138C40.6819 35.0653 40.6614 35.1146 40.625 35.151C40.5887 35.1874 40.5394 35.2079 40.4879 35.2082H20.1299C20.1045 35.208 20.0795 35.2028 20.0561 35.193C20.0328 35.1831 20.0116 35.1688 19.9938 35.1507C19.976 35.1327 19.962 35.1113 19.9525 35.0878C19.9429 35.0643 19.9382 35.0392 19.9384 35.0138V8.93876C19.9382 8.91342 19.9429 8.88829 19.9525 8.8648C19.962 8.84132 19.976 8.81994 19.9938 8.80189C20.0116 8.78385 20.0328 8.76949 20.0561 8.75965C20.0795 8.7498 20.1046 8.74465 20.1299 8.74451Z" fill="#EAF6FF"/>
<path id="Vector_6" fill-rule="evenodd" clip-rule="evenodd" d="M35.291 8.74451V12.9258C35.2916 13.2463 35.4192 13.5536 35.6459 13.7802C35.8725 14.0069 36.1798 14.1345 36.5003 14.1351H40.6816L35.291 8.74451Z" fill="#BEC7CF"/>
<path id="Vector_7" fill-rule="evenodd" clip-rule="evenodd" d="M24.7931 27.1293H40.7014C41.5077 27.1317 42.2803 27.4531 42.8505 28.0233C43.4207 28.5935 43.7421 29.3661 43.7445 30.1724V42.6707C43.7425 43.4772 43.4213 44.2501 42.851 44.8203C42.2808 45.3906 41.5079 45.7119 40.7014 45.7139H12.4974C11.6911 45.7115 10.9185 45.39 10.3483 44.8199C9.77808 44.2497 9.45667 43.477 9.45422 42.6707V24.0861C9.45601 23.4235 9.7202 22.7886 10.189 22.3203C10.6578 21.852 11.293 21.5886 11.9556 21.5875H17.2673C18.1486 21.5875 18.7479 22.1294 19.3773 22.7424L22.6832 25.9744C23.3126 26.5901 23.912 27.1293 24.7931 27.1293Z" fill="#FFBA57"/>
</g>
<path id="Vector_8" d="M23.2524 14.0618C23.0745 14.0597 22.9046 13.9876 22.7795 13.861C22.6545 13.7345 22.5843 13.5637 22.5843 13.3858C22.5843 13.2079 22.6545 13.0372 22.7795 12.9106C22.9046 12.7841 23.0745 12.7119 23.2524 12.7098H32.1904C32.3683 12.7119 32.5382 12.7841 32.6632 12.9106C32.7883 13.0372 32.8584 13.2079 32.8584 13.3858C32.8584 13.5637 32.7883 13.7345 32.6632 13.861C32.5382 13.9876 32.3683 14.0597 32.1904 14.0618H23.2524ZM23.2524 23.9243C23.0731 23.9243 22.9012 23.8531 22.7745 23.7263C22.6477 23.5996 22.5765 23.4276 22.5765 23.2484C22.5765 23.0691 22.6477 22.8972 22.7745 22.7704C22.9012 22.6436 23.0731 22.5724 23.2524 22.5724H37.3681C37.5473 22.5724 37.7193 22.6436 37.846 22.7704C37.9728 22.8972 38.044 23.0691 38.044 23.2484C38.044 23.4276 37.9728 23.5996 37.846 23.7263C37.7193 23.8531 37.5473 23.9243 37.3681 23.9243H23.2524ZM23.2524 20.6376C23.0745 20.6355 22.9046 20.5634 22.7795 20.4368C22.6545 20.3103 22.5843 20.1396 22.5843 19.9616C22.5843 19.7837 22.6545 19.613 22.7795 19.4864C22.9046 19.3599 23.0745 19.2877 23.2524 19.2857H37.3681C37.4575 19.2846 37.5463 19.3013 37.6292 19.3348C37.7122 19.3683 37.7876 19.4179 37.8512 19.4808C37.9149 19.5437 37.9654 19.6186 37.9998 19.7011C38.0343 19.7836 38.0521 19.8722 38.0521 19.9616C38.0521 20.0511 38.0343 20.1396 37.9998 20.2222C37.9654 20.3047 37.9149 20.3796 37.8512 20.4425C37.7876 20.5053 37.7122 20.555 37.6292 20.5885C37.5463 20.622 37.4575 20.6387 37.3681 20.6376H23.2524ZM23.2524 17.3508C23.1636 17.3508 23.0758 17.3334 22.9937 17.2994C22.9117 17.2654 22.8372 17.2156 22.7745 17.1529C22.7117 17.0901 22.6619 17.0156 22.6279 16.9336C22.594 16.8516 22.5765 16.7637 22.5765 16.6749C22.5765 16.5861 22.594 16.4982 22.6279 16.4162C22.6619 16.3342 22.7117 16.2597 22.7745 16.1969C22.8372 16.1342 22.9117 16.0844 22.9937 16.0504C23.0758 16.0164 23.1636 15.999 23.2524 15.999H37.3681C37.4568 15.999 37.5447 16.0164 37.6267 16.0504C37.7087 16.0844 37.7833 16.1342 37.846 16.1969C37.9088 16.2597 37.9586 16.3342 37.9926 16.4162C38.0265 16.4982 38.044 16.5861 38.044 16.6749C38.044 16.7637 38.0265 16.8516 37.9926 16.9336C37.9586 17.0156 37.9088 17.0901 37.846 17.1529C37.7833 17.2156 37.7087 17.2654 37.6267 17.2994C37.5447 17.3334 37.4568 17.3508 37.3681 17.3508H23.2524Z" fill="#BEC7CF"/>
<path id="Vector_9" d="M13.7481 37.5532C13.5688 37.5532 13.3969 37.482 13.2701 37.3552C13.1434 37.2284 13.0721 37.0565 13.0721 36.8772C13.0721 36.698 13.1434 36.526 13.2701 36.3993C13.3969 36.2725 13.5688 36.2013 13.7481 36.2013H20.3407C20.5199 36.2013 20.6919 36.2725 20.8186 36.3993C20.9454 36.526 21.0166 36.698 21.0166 36.8772C21.0166 37.0565 20.9454 37.2284 20.8186 37.3552C20.6919 37.482 20.5199 37.5532 20.3407 37.5532H13.7481ZM13.7481 42.1699C13.5688 42.1699 13.3969 42.0987 13.2701 41.9719C13.1434 41.8451 13.0721 41.6732 13.0721 41.4939C13.0721 41.3147 13.1434 41.1428 13.2701 41.016C13.3969 40.8892 13.5688 40.818 13.7481 40.818H39.4507C39.6299 40.818 39.8019 40.8892 39.9286 41.016C40.0554 41.1428 40.1266 41.3147 40.1266 41.4939C40.1266 41.6732 40.0554 41.8451 39.9286 41.9719C39.8019 42.0987 39.6299 42.1699 39.4507 42.1699H13.7481Z" fill="#CF9646"/>
<path id="Vector_10" fill-rule="evenodd" clip-rule="evenodd" d="M40.6822 27.641C41.0997 27.9184 41.4422 28.2945 41.6795 28.7361C41.9168 29.1777 42.0414 29.6709 42.0424 30.1722V42.6707C42.0404 43.4772 41.7191 44.2501 41.1488 44.8203C40.5785 45.3906 39.8056 45.7119 38.9992 45.7139H40.7014C41.5079 45.7119 42.2807 45.3906 42.851 44.8203C43.4213 44.2501 43.7425 43.4772 43.7445 42.6707V30.1724C43.7451 29.7731 43.666 29.3777 43.5119 29.0093C43.2804 28.4542 42.8903 27.9796 42.3903 27.6452C41.8904 27.3108 41.3029 27.1313 40.7014 27.1293H38.9992C39.5985 27.1292 40.1843 27.3073 40.6822 27.641ZM22.6832 25.9744L19.9384 23.2925L19.3773 22.7424C18.7479 22.1294 18.1486 21.5875 17.2673 21.5875H15.5679C16.4464 21.5875 17.0457 22.1294 17.6752 22.7424L19.9384 24.9536L20.9838 25.9744C21.6104 26.5901 22.2097 27.1293 23.091 27.1293H24.7931C23.9119 27.1293 23.3126 26.5901 22.6832 25.9744Z" fill="#E6A74E"/>
<path id="Vector_11" fill-rule="evenodd" clip-rule="evenodd" d="M42.2394 36.1137C43.3787 36.1137 44.4925 35.7759 45.4398 35.1429C46.3871 34.5099 47.1255 33.6102 47.5615 32.5576C47.9975 31.505 48.1116 30.3467 47.8893 29.2292C47.667 28.1118 47.1184 27.0853 46.3128 26.2797C45.5071 25.474 44.4807 24.9254 43.3632 24.7031C42.2457 24.4808 41.0875 24.5949 40.0348 25.0309C38.9822 25.4669 38.0825 26.2053 37.4495 27.1526C36.8166 28.1 36.4787 29.2137 36.4787 30.3531C36.4815 31.88 37.0894 33.3436 38.1691 34.4233C39.2488 35.503 40.7124 36.1109 42.2394 36.1137Z" fill="#25C73B"/>
<path id="Vector_12" d="M38.7966 31.1357C38.7322 31.0733 38.6808 30.9988 38.6455 30.9164C38.6102 30.834 38.5916 30.7453 38.5908 30.6557C38.59 30.566 38.6071 30.4771 38.641 30.3941C38.6749 30.3111 38.7249 30.2357 38.7882 30.1722C38.8516 30.1087 38.9269 30.0584 39.0098 30.0243C39.0927 29.9902 39.1816 29.9729 39.2712 29.9735C39.3609 29.9741 39.4496 29.9924 39.532 30.0276C39.6145 30.0627 39.6892 30.1139 39.7518 30.1781L41.0489 31.4752L44.7239 27.8002C44.8505 27.6736 45.0223 27.6024 45.2014 27.6024C45.3805 27.6024 45.5523 27.6736 45.679 27.8002C45.8056 27.9268 45.8768 28.0986 45.8768 28.2777C45.8768 28.4568 45.8057 28.6286 45.679 28.7553L41.525 32.9091C41.3982 33.0353 41.2265 33.1061 41.0475 33.1061C40.8686 33.1061 40.6969 33.0353 40.57 32.9091L38.7966 31.1357Z" fill="#EAF6FF"/>
<path id="Vector_13" fill-rule="evenodd" clip-rule="evenodd" d="M41.7495 24.6115C43.1629 24.7314 44.4824 25.3684 45.4554 26.4005C46.4284 27.4327 46.9864 28.7875 47.0227 30.2055C47.059 31.6235 46.5709 33.005 45.652 34.0856C44.733 35.1661 43.4478 35.8697 42.0424 36.0617C41.9465 36.0754 41.848 36.0863 41.7495 36.0945C41.848 36.1028 41.9438 36.1082 42.0424 36.111C42.108 36.1137 42.1736 36.1137 42.2392 36.1137C42.7476 36.1147 43.2538 36.0475 43.7444 35.9139C45.0922 35.5491 46.2616 34.7071 47.0352 33.5446C47.8087 32.3821 48.1337 30.9782 47.9496 29.594C47.7656 28.2099 47.0851 26.9397 46.0347 26.0197C44.9844 25.0997 43.6356 24.5925 42.2392 24.5924C42.075 24.5924 41.9111 24.5978 41.7494 24.6112L41.7495 24.6115Z" fill="#21B335"/>
<path id="Vector_14" fill-rule="evenodd" clip-rule="evenodd" d="M39.4507 14.1356V25.3094C39.8402 25.0941 40.2535 24.9251 40.6822 24.8059V14.1356H39.4507Z" fill="#D3DDE6"/>
</g>
<defs>
<clipPath id="clip0_1_833">
<rect width="48" height="48" fill="white"/>
</clipPath>
</defs>
</svg>
